<svg width="178" height="27" viewBox="0 0 178 27" fill="none" xmlns="http://www.w3.org/2000/svg">
<path d="M22.9176 10.4149L21.7933 15.662H26.1204V19.9211H20.8733L19.6467 25.7133H15.1151L16.3417 19.9211H10.1406L8.91399 25.7133H4.41646L5.64306 19.9211H0.498169V15.662H6.56301L7.68739 10.4149H2.57657V6.15591H8.60734L9.79986 0.499939H14.2974L13.1049 6.15591H19.306L20.4985 0.499939H25.0301L23.8376 6.15591H28.1988V10.4149H22.9176ZM18.386 10.4149H12.1849L11.0605 15.662H17.2617L18.386 10.4149Z" fill="#4A3830"/>
<path d="M46.5296 21.6928H57.2283V25.7133H41.0099V22.0335L51.6404 5.95148H41.0099V1.93097H57.2283V5.61076L46.5296 21.6928Z" fill="#4A3830"/>
<path d="M73.0095 25.9518C70.7835 25.9518 68.7392 25.4294 66.8765 24.3845C65.0139 23.3396 63.5375 21.8972 62.4472 20.0573C61.3569 18.1947 60.8117 16.0936 60.8117 13.754C60.8117 11.4371 61.3569 9.35869 62.4472 7.5188C63.5375 5.65619 65.0139 4.20244 66.8765 3.15756C68.7392 2.11269 70.7835 1.59025 73.0095 1.59025C75.2583 1.59025 77.3026 2.11269 79.1425 3.15756C81.0051 4.20244 82.4702 5.65619 83.5378 7.5188C84.6281 9.35869 85.1733 11.4371 85.1733 13.754C85.1733 16.0936 84.6281 18.1947 83.5378 20.0573C82.4702 21.8972 81.0051 23.3396 79.1425 24.3845C77.2799 25.4294 75.2356 25.9518 73.0095 25.9518ZM73.0095 21.6928C74.4406 21.6928 75.7012 21.3748 76.7915 20.7388C77.8818 20.0801 78.7336 19.1488 79.3469 17.9449C79.9602 16.741 80.2669 15.344 80.2669 13.754C80.2669 12.164 79.9602 10.7784 79.3469 9.5972C78.7336 8.39332 77.8818 7.47337 76.7915 6.83736C75.7012 6.20134 74.4406 5.88334 73.0095 5.88334C71.5785 5.88334 70.3065 6.20134 69.1934 6.83736C68.1031 7.47337 67.2513 8.39332 66.638 9.5972C66.0247 10.7784 65.7181 12.164 65.7181 13.754C65.7181 15.344 66.0247 16.741 66.638 17.9449C67.2513 19.1488 68.1031 20.0801 69.1934 20.7388C70.3065 21.3748 71.5785 21.6928 73.0095 21.6928Z" fill="#4A3830"/>
<path d="M102.896 13.5155C104.236 13.7654 105.338 14.4354 106.201 15.5257C107.064 16.6161 107.496 17.8654 107.496 19.2737C107.496 20.5457 107.178 21.6701 106.542 22.6468C105.929 23.6008 105.031 24.3504 103.85 24.8956C102.669 25.4407 101.272 25.7133 99.6593 25.7133H89.4035V1.93097H99.2163C100.829 1.93097 102.215 2.19219 103.373 2.71463C104.554 3.23707 105.44 3.96394 106.031 4.89524C106.644 5.82655 106.951 6.88278 106.951 8.06395C106.951 9.44955 106.576 10.608 105.826 11.5393C105.099 12.4706 104.123 13.1293 102.896 13.5155ZM94.1736 11.7437H98.5349C99.6706 11.7437 100.545 11.4939 101.158 10.9942C101.772 10.4717 102.078 9.73349 102.078 8.77947C102.078 7.82545 101.772 7.08722 101.158 6.56478C100.545 6.04234 99.6706 5.78112 98.5349 5.78112H94.1736V11.7437ZM98.9778 21.8291C100.136 21.8291 101.034 21.5565 101.67 21.0114C102.328 20.4662 102.658 19.6939 102.658 18.6945C102.658 17.6723 102.317 16.8773 101.635 16.3094C100.954 15.7188 100.034 15.4235 98.8756 15.4235H94.1736V21.8291H98.9778Z" fill="#4A3830"/>
<path d="M126.562 21.1817H117.09L115.523 25.7133H110.514L119.066 1.89689H124.62L133.172 25.7133H128.129L126.562 21.1817ZM125.267 17.3656L121.826 7.41658L118.385 17.3656H125.267Z" fill="#4A3830"/>
<path d="M151.633 21.1817H142.161L140.593 25.7133H135.585L144.137 1.89689H149.691L158.243 25.7133H153.2L151.633 21.1817ZM150.338 17.3656L146.897 7.41658L143.456 17.3656H150.338Z" fill="#4A3830"/>
<path d="M176.664 2.77727L171.878 18.5323L167.994 17.4917L171.694 1.44567L176.664 2.77727ZM167.971 25.7396C167.137 25.5162 166.514 25.0787 166.101 24.4271C165.715 23.7594 165.625 23.0416 165.831 22.2737C166.037 21.5058 166.471 20.94 167.132 20.5765C167.822 20.1969 168.584 20.1188 169.417 20.3422C170.229 20.5597 170.828 21.0023 171.213 21.67C171.605 22.3157 171.698 23.0226 171.492 23.7905C171.286 24.5584 170.849 25.1351 170.182 25.5206C169.52 25.8841 168.783 25.9572 167.971 25.7396Z" fill="#4A3830"/>
</svg>
