<svg width="96" height="17" viewBox="0 0 96 17" fill="none" xmlns="http://www.w3.org/2000/svg">
<path fill-rule="evenodd" clip-rule="evenodd" d="M7.99924 12.5484L3.64924 14.7904C3.61631 14.8074 3.57932 14.8149 3.54238 14.812C3.50545 14.8092 3.47002 14.7962 3.44006 14.7744C3.41009 14.7526 3.38676 14.723 3.37267 14.6887C3.35857 14.6544 3.35427 14.617 3.36024 14.5804L4.15024 9.75039L0.672236 6.30839C0.645398 6.28264 0.626357 6.24985 0.617295 6.21377C0.608232 6.1777 0.609515 6.1398 0.620995 6.10442C0.632475 6.06904 0.653689 6.03761 0.682206 6.01373C0.710723 5.98985 0.74539 5.97448 0.782236 5.96939L5.61924 5.22639L7.81924 0.856392C7.83582 0.823111 7.86136 0.795113 7.89298 0.775543C7.9246 0.755973 7.96105 0.745605 7.99824 0.745605C8.03542 0.745605 8.07187 0.755973 8.10349 0.775543C8.13511 0.795113 8.16065 0.823111 8.17724 0.856392L10.3772 5.22639L15.2142 5.96939C15.2509 5.97484 15.2853 5.9904 15.3135 6.01432C15.3418 6.03824 15.3628 6.06958 15.3743 6.10481C15.3857 6.14004 15.3871 6.17776 15.3782 6.21372C15.3694 6.24969 15.3507 6.28248 15.3242 6.30839L11.8492 9.75139L12.6372 14.5814C12.643 14.6179 12.6385 14.6552 12.6243 14.6893C12.6101 14.7234 12.5868 14.7529 12.5569 14.7746C12.5269 14.7962 12.4916 14.8092 12.4548 14.8119C12.418 14.8147 12.3811 14.8073 12.3482 14.7904L7.99924 12.5484Z" fill="#A37F71"/>
<path fill-rule="evenodd" clip-rule="evenodd" d="M27.9992 12.5484L23.6492 14.7904C23.6163 14.8074 23.5793 14.8149 23.5424 14.812C23.5054 14.8092 23.47 14.7962 23.4401 14.7744C23.4101 14.7526 23.3868 14.723 23.3727 14.6887C23.3586 14.6544 23.3543 14.617 23.3602 14.5804L24.1502 9.75039L20.6722 6.30839C20.6454 6.28264 20.6264 6.24985 20.6173 6.21377C20.6082 6.1777 20.6095 6.1398 20.621 6.10442C20.6325 6.06904 20.6537 6.03761 20.6822 6.01373C20.7107 5.98985 20.7454 5.97448 20.7822 5.96939L25.6192 5.22639L27.8192 0.856392C27.8358 0.823111 27.8614 0.795113 27.893 0.775543C27.9246 0.755973 27.961 0.745605 27.9982 0.745605C28.0354 0.745605 28.0719 0.755973 28.1035 0.775543C28.1351 0.795113 28.1606 0.823111 28.1772 0.856392L30.3772 5.22639L35.2142 5.96939C35.2509 5.97484 35.2853 5.9904 35.3135 6.01432C35.3418 6.03824 35.3628 6.06958 35.3743 6.10481C35.3857 6.14004 35.3871 6.17776 35.3782 6.21372C35.3694 6.24969 35.3507 6.28248 35.3242 6.30839L31.8492 9.75139L32.6372 14.5814C32.643 14.6179 32.6385 14.6552 32.6243 14.6893C32.6101 14.7234 32.5868 14.7529 32.5569 14.7746C32.5269 14.7962 32.4916 14.8092 32.4548 14.8119C32.418 14.8147 32.3811 14.8073 32.3482 14.7904L27.9992 12.5484Z" fill="#A37F71"/>
<path fill-rule="evenodd" clip-rule="evenodd" d="M47.9992 12.5484L43.6492 14.7904C43.6163 14.8074 43.5793 14.8149 43.5424 14.812C43.5054 14.8092 43.47 14.7962 43.4401 14.7744C43.4101 14.7526 43.3868 14.723 43.3727 14.6887C43.3586 14.6544 43.3543 14.617 43.3602 14.5804L44.1502 9.75039L40.6722 6.30839C40.6454 6.28264 40.6264 6.24985 40.6173 6.21377C40.6082 6.1777 40.6095 6.1398 40.621 6.10442C40.6325 6.06904 40.6537 6.03761 40.6822 6.01373C40.7107 5.98985 40.7454 5.97448 40.7822 5.96939L45.6192 5.22639L47.8192 0.856392C47.8358 0.823111 47.8614 0.795113 47.893 0.775543C47.9246 0.755973 47.961 0.745605 47.9982 0.745605C48.0354 0.745605 48.0719 0.755973 48.1035 0.775543C48.1351 0.795113 48.1606 0.823111 48.1772 0.856392L50.3772 5.22639L55.2142 5.96939C55.2509 5.97484 55.2853 5.9904 55.3135 6.01432C55.3418 6.03824 55.3628 6.06958 55.3743 6.10481C55.3857 6.14004 55.3871 6.17776 55.3782 6.21372C55.3694 6.24969 55.3507 6.28248 55.3242 6.30839L51.8492 9.75139L52.6372 14.5814C52.643 14.6179 52.6385 14.6552 52.6243 14.6893C52.6101 14.7234 52.5868 14.7529 52.5569 14.7746C52.5269 14.7962 52.4916 14.8092 52.4548 14.8119C52.418 14.8147 52.3811 14.8073 52.3482 14.7904L47.9992 12.5484Z" fill="#A37F71"/>
<path fill-rule="evenodd" clip-rule="evenodd" d="M67.9992 12.5484L63.6492 14.7904C63.6163 14.8074 63.5793 14.8149 63.5424 14.812C63.5054 14.8092 63.47 14.7962 63.4401 14.7744C63.4101 14.7526 63.3868 14.723 63.3727 14.6887C63.3586 14.6544 63.3543 14.617 63.3602 14.5804L64.1502 9.75039L60.6722 6.30839C60.6454 6.28264 60.6264 6.24985 60.6173 6.21377C60.6082 6.1777 60.6095 6.1398 60.621 6.10442C60.6325 6.06904 60.6537 6.03761 60.6822 6.01373C60.7107 5.98985 60.7454 5.97448 60.7822 5.96939L65.6192 5.22639L67.8192 0.856392C67.8358 0.823111 67.8614 0.795113 67.893 0.775543C67.9246 0.755973 67.961 0.745605 67.9982 0.745605C68.0354 0.745605 68.0719 0.755973 68.1035 0.775543C68.1351 0.795113 68.1606 0.823111 68.1772 0.856392L70.3772 5.22639L75.2142 5.96939C75.2509 5.97484 75.2853 5.9904 75.3135 6.01432C75.3418 6.03824 75.3628 6.06958 75.3743 6.10481C75.3857 6.14004 75.3871 6.17776 75.3782 6.21372C75.3694 6.24969 75.3507 6.28248 75.3242 6.30839L71.8492 9.75139L72.6372 14.5814C72.643 14.6179 72.6385 14.6552 72.6243 14.6893C72.6101 14.7234 72.5868 14.7529 72.5569 14.7746C72.5269 14.7962 72.4916 14.8092 72.4548 14.8119C72.418 14.8147 72.3811 14.8073 72.3482 14.7904L67.9992 12.5484Z" fill="#A37F71"/>
<path fill-rule="evenodd" clip-rule="evenodd" d="M87.9992 12.5484L83.6492 14.7904C83.6163 14.8074 83.5793 14.8149 83.5424 14.812C83.5054 14.8092 83.47 14.7962 83.4401 14.7744C83.4101 14.7526 83.3868 14.723 83.3727 14.6887C83.3586 14.6544 83.3543 14.617 83.3602 14.5804L84.1502 9.75039L80.6722 6.30839C80.6454 6.28264 80.6264 6.24985 80.6173 6.21377C80.6082 6.1777 80.6095 6.1398 80.621 6.10442C80.6325 6.06904 80.6537 6.03761 80.6822 6.01373C80.7107 5.98985 80.7454 5.97448 80.7822 5.96939L85.6192 5.22639L87.8192 0.856392C87.8358 0.823111 87.8614 0.795113 87.893 0.775543C87.9246 0.755973 87.961 0.745605 87.9982 0.745605C88.0354 0.745605 88.0719 0.755973 88.1035 0.775543C88.1351 0.795113 88.1606 0.823111 88.1772 0.856392L90.3772 5.22639L95.2142 5.96939C95.2509 5.97484 95.2853 5.9904 95.3135 6.01432C95.3418 6.03824 95.3628 6.06958 95.3743 6.10481C95.3857 6.14004 95.3871 6.17776 95.3782 6.21372C95.3694 6.24969 95.3507 6.28248 95.3242 6.30839L91.8492 9.75139L92.6372 14.5814C92.643 14.6179 92.6385 14.6552 92.6243 14.6893C92.6101 14.7234 92.5868 14.7529 92.5569 14.7746C92.5269 14.7962 92.4916 14.8092 92.4548 14.8119C92.418 14.8147 92.3811 14.8073 92.3482 14.7904L87.9992 12.5484Z" fill="#A37F71"/>
</svg>
